<svg width="24" height="25" viewBox="0 0 24 25" fill="none" xmlns="http://www.w3.org/2000/svg">
<path d="M20.7807 13.0218L14.0307 19.7718C13.89 19.9125 13.6991 19.9916 13.5001 19.9916C13.301 19.9916 13.1102 19.9125 12.9694 19.7718C12.8287 19.631 12.7496 19.4402 12.7496 19.2411C12.7496 19.0421 12.8287 18.8512 12.9694 18.7105L18.4397 13.2411H3.75006C3.55115 13.2411 3.36038 13.1621 3.21973 13.0215C3.07908 12.8808 3.00006 12.6901 3.00006 12.4911C3.00006 12.2922 3.07908 12.1015 3.21973 11.9608C3.36038 11.8202 3.55115 11.7411 3.75006 11.7411H18.4397L12.9694 6.27176C12.8287 6.13103 12.7496 5.94016 12.7496 5.74114C12.7496 5.54212 12.8287 5.35125 12.9694 5.21051C13.1102 5.06978 13.301 4.99072 13.5001 4.99072C13.6991 4.99072 13.89 5.06978 14.0307 5.21051L20.7807 11.9605C20.8504 12.0302 20.9057 12.1129 20.9435 12.2039C20.9812 12.295 21.0007 12.3926 21.0007 12.4911C21.0007 12.5897 20.9812 12.6873 20.9435 12.7783C20.9057 12.8694 20.8504 12.9521 20.7807 13.0218Z" fill="#F5F6F6"/>
</svg>
