<?xml version="1.0" encoding="UTF-8" standalone="no"?>
<!DOCTYPE svg PUBLIC "-//W3C//DTD SVG 1.1//EN" "http://www.w3.org/Graphics/SVG/1.1/DTD/svg11.dtd">
<svg xmlns="http://www.w3.org/2000/svg" version="1.1" viewBox="0.00 0.00 306.00 28.00">
<path fill="#ffffff" d="
  M 101.64 4.32
  L 107.68 0.58
  A 0.42 0.42 0.0 0 1 108.27 0.74
  L 109.90 3.69
  A 0.42 0.42 0.0 0 1 109.68 4.28
  L 102.85 6.90
  A 0.42 0.42 0.0 0 1 102.32 6.68
  L 101.47 4.85
  A 0.42 0.42 0.0 0 1 101.64 4.32
  Z"
/>
<path fill="#ffffff" d="
  M 235.91 4.32
  L 242.19 0.53
  A 0.43 0.43 0.0 0 1 242.80 0.70
  L 244.31 3.67
  A 0.43 0.43 0.0 0 1 244.08 4.26
  L 237.31 6.92
  A 0.43 0.43 0.0 0 1 236.78 6.73
  L 235.75 4.89
  A 0.43 0.43 0.0 0 1 235.91 4.32
  Z"
/>
<circle fill="#ffffff" cx="67.37" cy="3.98" r="2.92"/>
<ellipse fill="#ffffff" cx="0.00" cy="0.00" transform="translate(144.11,3.96) rotate(-3.8)" rx="3.00" ry="2.85"/>
<circle fill="#ffffff" cx="278.44" cy="3.97" r="2.90"/>
<path fill="#ffffff" d="
  M 52.78 4.89
  L 57.41 4.93
  A 0.32 0.32 0.0 0 1 57.71 5.34
  L 51.50 26.77
  A 0.32 0.32 0.0 0 1 51.19 27.00
  L 45.26 27.00
  A 0.32 0.32 0.0 0 1 44.95 26.77
  L 38.75 5.31
  A 0.32 0.32 0.0 0 1 39.06 4.90
  L 43.94 4.93
  A 0.32 0.32 0.0 0 1 44.25 5.18
  L 48.00 21.73
  A 0.32 0.32 0.0 0 0 48.62 21.73
  L 52.46 5.14
  A 0.32 0.32 0.0 0 1 52.78 4.89
  Z"
/>
<path fill="#ffffff" d="
  M 219.85 22.88
  L 228.71 22.89
  A 0.35 0.35 0.0 0 1 229.05 23.28
  L 228.66 26.69
  A 0.35 0.35 0.0 0 1 228.31 27.00
  L 214.60 27.00
  A 0.35 0.35 0.0 0 1 214.25 26.65
  L 214.25 5.24
  A 0.35 0.35 0.0 0 1 214.60 4.89
  L 219.15 4.91
  A 0.35 0.35 0.0 0 1 219.50 5.26
  L 219.50 22.53
  A 0.35 0.35 0.0 0 0 219.85 22.88
  Z"
/>
<path fill="#059669" d="
  M 13.17 24.43
  L 22.16 6.08
  A 1.10 1.10 0.0 0 1 23.01 5.47
  L 23.97 5.35
  A 1.10 1.10 0.0 0 1 25.14 6.81
  L 18.10 26.36
  A 1.10 1.10 0.0 0 1 16.68 27.02
  L 13.78 25.95
  A 1.10 1.10 0.0 0 1 13.17 24.43
  Z"
/>
<path fill="#059669" d="
  M 6.90 15.71
  Q 8.74 17.48 10.79 18.54
  Q 12.71 19.54 11.40 21.26
  Q 9.73 23.46 9.73 23.46
  Q 8.37 25.25 6.71 23.68
  C 4.94 22.00 1.05 19.59 0.56 17.30
  A 1.08 1.06 59.3 0 1 0.78 16.41
  Q 4.56 11.74 8.37 8.18
  A 1.30 1.30 0.0 0 1 10.25 8.29
  L 10.45 8.53
  A 1.79 1.79 0.0 0 1 10.41 10.88
  L 6.86 14.82
  Q 6.45 15.28 6.90 15.71
  Z"
/>
<path fill="#059669" d="
  M 31.50 16.45
  Q 29.82 14.82 27.68 13.94
  A 1.57 1.57 0.0 0 1 26.98 11.58
  L 28.66 9.18
  Q 30.17 7.02 32.04 8.87
  Q 34.15 10.96 36.52 12.80
  Q 37.90 13.88 37.95 15.34
  Q 37.97 15.74 37.72 16.05
  Q 34.14 20.59 30.32 24.16
  Q 29.17 25.23 28.14 24.04
  L 27.88 23.74
  Q 27.16 22.89 27.88 22.04
  L 31.56 17.73
  Q 32.13 17.06 31.50 16.45
  Z"
/>
<path fill="#ffffff" d="
  M 84.62 11.48
  Q 85.98 9.86 87.94 9.59
  Q 93.89 8.77 93.96 14.75
  Q 94.03 20.84 93.99 26.51
  Q 93.98 27.00 93.50 27.00
  L 89.44 27.00
  Q 88.87 27.00 88.87 26.44
  L 88.89 15.01
  Q 88.89 12.60 86.60 13.35
  Q 86.41 13.41 86.34 13.43
  Q 84.25 14.12 84.25 16.50
  L 84.25 26.50
  A 0.50 0.50 0.0 0 1 83.75 27.00
  L 79.75 27.00
  Q 79.25 26.99 79.25 26.50
  L 79.25 10.50
  Q 79.25 10.00 79.75 10.00
  L 83.24 10.00
  Q 83.77 10.00 83.77 10.53
  Q 83.77 10.96 83.91 11.35
  Q 84.15 12.03 84.62 11.48
  Z"
/>
<path fill="#ffffff" d="
  M 123.23 21.31
  C 124.25 24.42 128.23 23.89 130.28 22.29
  Q 130.45 22.16 130.57 22.33
  L 132.52 25.21
  Q 132.65 25.41 132.45 25.54
  C 127.11 29.08 119.48 28.05 117.88 21.10
  C 115.79 12.00 124.89 6.08 132.32 11.37
  A 0.37 0.37 0.0 0 1 132.41 11.90
  L 130.71 14.25
  Q 130.50 14.54 130.19 14.38
  C 123.87 11.12 121.64 16.48 123.23 21.31
  Z"
/>
<path fill="#ffffff" d="
  M 180.70 13.84
  A 1.14 1.14 0.0 0 0 181.26 15.40
  Q 183.45 16.34 185.89 16.99
  C 191.07 18.36 191.62 24.87 186.56 26.68
  Q 180.23 28.94 174.69 25.26
  A 0.22 0.22 0.0 0 1 174.64 24.94
  L 176.81 22.33
  A 0.25 0.24 -50.6 0 1 177.16 22.29
  Q 179.54 24.26 183.31 23.85
  A 1.59 1.58 84.9 0 0 184.72 22.16
  Q 184.64 21.02 183.30 20.64
  C 180.66 19.89 175.81 18.94 175.56 15.41
  Q 175.29 11.53 178.98 10.17
  Q 184.27 8.21 189.52 11.33
  A 0.23 0.23 0.0 0 1 189.60 11.66
  L 187.83 14.31
  Q 187.70 14.51 187.50 14.37
  Q 185.13 12.77 181.92 13.07
  Q 181.04 13.16 180.70 13.84
  Z"
/>
<path fill="#ffffff" d="
  M 251.91 18.88
  C 251.77 10.82 259.69 6.87 266.38 11.12
  Q 267.04 11.54 266.56 12.16
  L 265.07 14.14
  Q 264.74 14.58 264.27 14.27
  C 261.69 12.59 258.16 12.88 257.35 16.35
  Q 256.64 19.36 257.67 21.64
  C 258.93 24.42 262.50 23.77 264.56 22.27
  A 0.25 0.25 0.0 0 1 264.92 22.33
  L 266.78 25.04
  A 0.32 0.32 0.0 0 1 266.70 25.48
  C 260.58 29.97 252.05 26.96 251.91 18.88
  Z"
/>
<path fill="#ffffff" d="
  M 306.00 17.71
  L 306.00 19.43
  Q 305.05 27.94 296.54 27.26
  Q 291.43 26.86 290.00 22.32
  C 287.94 15.78 291.23 8.66 298.79 9.48
  Q 305.26 10.18 306.00 17.71
  Z
  M 300.5956 15.9449
  A 2.76 2.76 0.0 0 0 297.8308 13.1897
  L 297.4508 13.1903
  A 2.76 2.76 0.0 0 0 294.6956 15.9552
  L 294.7044 21.0151
  A 2.76 2.76 0.0 0 0 297.4692 23.7703
  L 297.8492 23.7697
  A 2.76 2.76 0.0 0 0 300.6044 21.0048
  L 300.5956 15.9449
  Z"
/>
<path fill="#ffffff" d="
  M 70.66 23.49
  L 74.37 23.51
  A 0.37 0.37 0.0 0 1 74.74 23.88
  L 74.75 26.63
  A 0.37 0.37 0.0 0 1 74.38 27.00
  L 61.03 27.00
  A 0.37 0.37 0.0 0 1 60.66 26.63
  L 60.67 23.88
  A 0.37 0.37 0.0 0 1 61.04 23.51
  L 65.04 23.50
  A 0.37 0.37 0.0 0 0 65.41 23.13
  L 65.39 13.87
  A 0.37 0.37 0.0 0 0 65.02 13.50
  L 61.13 13.50
  A 0.37 0.37 0.0 0 1 60.76 13.13
  L 60.75 10.37
  A 0.37 0.37 0.0 0 1 61.12 10.00
  L 69.95 10.00
  A 0.37 0.37 0.0 0 1 70.32 10.37
  L 70.29 23.12
  A 0.37 0.37 0.0 0 0 70.66 23.49
  Z"
/>
<path fill="#ffffff" d="
  M 109.07 23.50
  L 112.77 23.51
  A 0.32 0.32 0.0 0 1 113.09 23.83
  L 113.09 26.68
  A 0.32 0.32 0.0 0 1 112.77 27.00
  L 99.31 27.00
  A 0.32 0.32 0.0 0 1 98.99 26.68
  L 99.01 23.83
  A 0.32 0.32 0.0 0 1 99.33 23.51
  L 103.43 23.50
  A 0.32 0.32 0.0 0 0 103.75 23.18
  L 103.75 13.82
  A 0.32 0.32 0.0 0 0 103.43 13.50
  L 99.49 13.49
  A 0.32 0.32 0.0 0 1 99.17 13.17
  L 99.13 10.32
  A 0.32 0.32 0.0 0 1 99.45 10.00
  L 108.43 10.00
  A 0.32 0.32 0.0 0 1 108.75 10.32
  L 108.75 23.18
  A 0.32 0.32 0.0 0 0 109.07 23.50
  Z"
/>
<path fill="#ffffff" d="
  M 142.13 23.18
  L 142.17 13.82
  A 0.32 0.32 0.0 0 0 141.85 13.50
  L 137.83 13.50
  A 0.32 0.32 0.0 0 1 137.51 13.18
  L 137.49 10.32
  A 0.32 0.32 0.0 0 1 137.81 10.00
  L 146.74 10.00
  A 0.32 0.32 0.0 0 1 147.06 10.32
  L 147.06 23.18
  A 0.32 0.32 0.0 0 0 147.38 23.50
  L 151.17 23.51
  A 0.32 0.32 0.0 0 1 151.49 23.83
  L 151.49 26.68
  A 0.32 0.32 0.0 0 1 151.17 27.00
  L 137.71 27.00
  A 0.32 0.32 0.0 0 1 137.39 26.67
  L 137.46 23.82
  A 0.32 0.32 0.0 0 1 137.78 23.51
  L 141.81 23.50
  A 0.32 0.32 0.0 0 0 142.13 23.18
  Z"
/>
<path fill="#ffffff" d="
  M 166.23 25.57
  Q 166.22 24.87 165.74 25.38
  Q 163.60 27.67 160.37 27.50
  C 156.86 27.32 155.88 24.65 155.95 21.52
  Q 156.07 15.66 155.98 10.30
  Q 155.97 10.00 156.27 10.00
  L 160.75 10.00
  A 0.25 0.25 0.0 0 1 161.00 10.25
  L 161.00 21.98
  Q 161.00 23.80 162.82 23.78
  Q 163.23 23.77 163.62 23.66
  Q 165.70 23.06 165.69 20.90
  L 165.65 10.36
  A 0.36 0.35 -0.8 0 1 166.01 10.00
  L 170.50 10.01
  Q 170.75 10.01 170.75 10.25
  L 170.75 26.50
  Q 170.75 27.00 170.25 27.00
  L 166.75 27.00
  Q 166.25 27.00 166.24 26.50
  L 166.23 25.57
  Z"
/>
<path fill="#ffffff" d="
  M 242.16 25.76
  C 238.81 29.02 232.85 27.84 232.80 22.67
  Q 232.74 15.86 232.76 10.30
  Q 232.76 10.00 233.05 10.00
  L 237.50 10.01
  Q 237.75 10.01 237.75 10.25
  L 237.75 21.91
  Q 237.75 24.42 240.15 23.69
  L 240.51 23.58
  Q 242.44 23.00 242.44 20.99
  L 242.43 10.28
  A 0.28 0.28 0.0 0 1 242.71 10.00
  L 247.25 10.00
  Q 247.50 10.00 247.50 10.25
  L 247.50 26.74
  Q 247.50 26.98 247.26 26.98
  L 243.55 27.01
  A 0.54 0.54 0.0 0 1 243.02 26.55
  L 242.93 26.02
  Q 242.79 25.14 242.16 25.76
  Z"
/>
<path fill="#ffffff" d="
  M 276.50 23.18
  L 276.50 13.83
  A 0.32 0.32 0.0 0 0 276.18 13.51
  L 272.08 13.49
  A 0.32 0.32 0.0 0 1 271.76 13.17
  L 271.74 10.32
  A 0.32 0.32 0.0 0 1 272.06 10.00
  L 281.18 10.00
  A 0.32 0.32 0.0 0 1 281.50 10.32
  L 281.50 23.18
  A 0.32 0.32 0.0 0 0 281.82 23.50
  L 285.49 23.51
  A 0.32 0.32 0.0 0 1 285.81 23.82
  L 285.87 26.67
  A 0.32 0.32 0.0 0 1 285.55 27.00
  L 271.98 27.00
  A 0.32 0.32 0.0 0 1 271.66 26.68
  L 271.67 23.83
  A 0.32 0.32 0.0 0 1 271.99 23.51
  L 276.18 23.50
  A 0.32 0.32 0.0 0 0 276.50 23.18
  Z"
/>
</svg>
