<svg width="24" height="25" viewBox="0 0 24 25" fill="none" xmlns="http://www.w3.org/2000/svg">
<path d="M19.7607 4.17078L7.54975 2.01453C7.15802 1.94559 6.75496 2.03506 6.42919 2.26326C6.10342 2.49146 5.88162 2.8397 5.81256 3.2314L3.0235 19.0752C2.98938 19.2692 2.99385 19.4682 3.03665 19.6605C3.07944 19.8529 3.15973 20.035 3.27291 20.1963C3.38609 20.3576 3.52996 20.4951 3.69628 20.6008C3.8626 20.7065 4.04813 20.7784 4.24225 20.8123L16.4532 22.9686C16.6474 23.0028 16.8464 22.9985 17.0388 22.9557C17.2313 22.913 17.4135 22.8328 17.5749 22.7196C17.7363 22.6064 17.8739 22.4625 17.9796 22.2961C18.0854 22.1297 18.1573 21.9441 18.1913 21.7498L20.9804 5.90609C21.0487 5.51424 20.9586 5.11129 20.7299 4.78587C20.5011 4.46045 20.1525 4.2392 19.7607 4.17078ZM16.7119 21.4911L4.50006 19.3348L7.28912 3.49109L19.5001 5.64734L16.7119 21.4911ZM8.37568 5.96796C8.41043 5.77219 8.52149 5.59822 8.68445 5.4843C8.84742 5.37038 9.04895 5.32584 9.24475 5.36046L17.026 6.7339C17.2109 6.7663 17.377 6.86687 17.4914 7.01576C17.6057 7.16465 17.6601 7.35102 17.6437 7.53805C17.6274 7.72508 17.5414 7.89917 17.4029 8.02593C17.2644 8.15268 17.0834 8.22288 16.8957 8.22265C16.8517 8.22259 16.8078 8.21883 16.7644 8.2114L8.98319 6.83703C8.78741 6.80229 8.61344 6.69123 8.49952 6.52826C8.3856 6.36529 8.34106 6.16376 8.37568 5.96796ZM7.85631 8.92297C7.8734 8.82594 7.90945 8.73324 7.96238 8.65015C8.01531 8.56705 8.08409 8.49521 8.16479 8.4387C8.2455 8.3822 8.33654 8.34215 8.43273 8.32085C8.52892 8.29954 8.62836 8.29739 8.72537 8.31453L16.5066 9.6889C16.6929 9.72005 16.8605 9.82029 16.976 9.96962C17.0916 10.1189 17.1466 10.3064 17.13 10.4945C17.1134 10.6825 17.0265 10.8575 16.8866 10.9843C16.7468 11.1111 16.5642 11.1805 16.3754 11.1786C16.331 11.1787 16.2868 11.1746 16.2432 11.1664L8.46194 9.79296C8.26631 9.7578 8.09265 9.64642 7.97909 9.48329C7.86553 9.32016 7.82137 9.11863 7.85631 8.92297ZM7.336 11.877C7.37139 11.6818 7.48273 11.5085 7.64562 11.3952C7.80851 11.2818 8.00967 11.2377 8.20506 11.2723L12.0938 11.9558C12.2787 11.9882 12.4447 12.0887 12.559 12.2375C12.6734 12.3862 12.7278 12.5725 12.7116 12.7595C12.6953 12.9464 12.6096 13.1205 12.4713 13.2473C12.3329 13.3742 12.1521 13.4445 11.9644 13.4445C11.9204 13.4445 11.8765 13.4407 11.8332 13.4333L7.94256 12.7461C7.74696 12.7111 7.57322 12.6 7.4595 12.437C7.34577 12.2741 7.30135 12.0727 7.336 11.877Z" fill="#F5F6F6"/>
</svg>
